<svg xmlns="http://www.w3.org/2000/svg" width="280" height="76" viewBox="0 0 280 76" role="img" aria-labelledby="title desc">
  <title id="title">PreçoCerto</title>
  <desc id="desc">Etiqueta de preço com seta descendente, símbolo do PreçoCerto, versão para fundo escuro</desc>
  <!-- Sobre fundo escuro o contêiner sai e a etiqueta assume o desenho, para
       a marca não virar um bloco escuro dentro de outro. -->
  <g transform="translate(2 6) scale(0.66)">
    <path d="M25 28.5A6.5 6.5 0 0 1 31.5 22H56a6.5 6.5 0 0 1 4.6 1.9l13 13a6.5 6.5 0 0 1 0 9.2L50.1 69.6a6.5 6.5 0 0 1-9.2 0l-13-13A6.5 6.5 0 0 1 25 52Z" fill="#5CD985"/>
    <circle cx="38" cy="35" r="4.6" fill="#0E2B1B"/>
    <path d="M57 38v15.5" stroke="#0E2B1B" stroke-width="6" stroke-linecap="round"/>
    <path d="M49.5 47 57 54.5 64.5 47" fill="none" stroke="#0E2B1B" stroke-width="6" stroke-linecap="round" stroke-linejoin="round"/>
  </g>
  <text x="80" y="47" fill="#F0F5F8" font-family="Manrope, Inter, Arial, sans-serif" font-size="33" font-weight="800" letter-spacing="-1.2">Preço</text>
  <text x="177" y="47" fill="#5CD985" font-family="Manrope, Inter, Arial, sans-serif" font-size="33" font-weight="800" letter-spacing="-1.2">Certo</text>
</svg>
