<svg xmlns="http://www.w3.org/2000/svg" width="280" height="76" viewBox="0 0 280 76" role="img" aria-labelledby="title desc">
  <title id="title">PreçoCerto</title>
  <desc id="desc">Carrinho com etiqueta de desconto, símbolo oficial do PreçoCerto</desc>
  <g transform="translate(2 3)" fill="none" stroke-linecap="round" stroke-linejoin="round">
    <path d="M31 5C16 8 6 20 5 35c-1 15 8 28 22 34" stroke="#D4A6D6" stroke-width="5"/>
    <path d="M28 69c16 6 34 0 43-14 7-11 8-25 2-36" stroke="#F7F2F8" stroke-width="5"/>
    <path d="M15 25h8l6 23h29l7-18" stroke="#F7F2F8" stroke-width="4.6"/>
    <path d="M29 51h31" stroke="#F7F2F8" stroke-width="3.8"/>
    <circle cx="36" cy="59" r="4.3" fill="#F7F2F8" stroke="none"/>
    <circle cx="55" cy="59" r="4.3" fill="#F7F2F8" stroke="none"/>
    <path d="M34 13h22l10 10-15 19H31L22 30Z" fill="#D4A6D6" stroke="none"/>
    <circle cx="56" cy="22" r="3" fill="#F7F2F8" stroke="none"/>
    <circle cx="38" cy="26" r="2.5" stroke="#F7F2F8" stroke-width="2.3"/>
    <circle cx="48" cy="36" r="2.5" stroke="#F7F2F8" stroke-width="2.3"/>
    <path d="M49 25 37 37" stroke="#F7F2F8" stroke-width="2.6"/>
  </g>
  <text x="86" y="43" fill="#F7F2F8" font-family="Inter, Manrope, Arial, sans-serif" font-size="35" font-weight="800" letter-spacing="-1.7">Preço</text>
  <text x="183" y="43" fill="#D4A6D6" font-family="Inter, Manrope, Arial, sans-serif" font-size="35" font-weight="800" letter-spacing="-1.7">Certo</text>
</svg>
